<svg width="271" height="201" viewBox="0 0 271 201" fill="none" xmlns="http://www.w3.org/2000/svg">
    <path d="M47.7256 153.553L64.7409 144.008L65.986 144.838L50.6307 153.553L92.9615 178.453L56.0258 200.034L34.0304 186.753L24.0702 192.564L22.4102 191.734L34.0304 184.678L56.0258 197.959L90.0564 178.453L47.7256 153.553Z"
          fill="#4BEFA9"/>
    <path d="M46.4806 60.1761L44.8206 61.0062L26.1452 50.216L68.061 25.3155L39.4255 8.71519L40.6705 7.47017L70.9661 25.3155L29.0503 50.216L46.4806 60.1761Z"
          fill="#4BEFA9"/>
    <path d="M221.614 135.293L219.954 135.708L226.594 140.273L183.848 164.758L220.369 185.923L242.779 173.058L253.569 179.283L255.229 178.453L242.779 171.398L220.369 184.263L186.753 164.758L229.084 140.273L221.614 135.293Z"
          fill="#4BEFA9"/>
    <path d="M217.049 41.0858L205.014 48.9709L205.844 50.216L217.049 42.7458C221.614 45.6509 230.827 51.378 231.159 51.046C231.491 50.714 255.091 36.7974 266.85 29.8806L241.949 15.3553L249.834 10.7902L248.589 9.96022L239.044 15.3553L263.945 29.8806L231.159 49.3859L217.049 41.0858Z"
          fill="#4BEFA9"/>
    <path d="M134.877 8.71523L0 87.1517L135.708 165.588L271 86.7367L134.877 8.71523Z" fill="#B4F6DA"/>
    <path d="M43.9907 87.9816V80.0964L134.462 132.387V140.688L43.9907 87.9816Z" fill="#2DBC7F"/>
    <path d="M134.462 132.387V140.688L224.934 87.9816V80.0964L134.462 132.387Z" fill="#2DBC7F"/>
    <path d="M45.236 92.5467V102.922L46.481 102.092V93.3767L52.2911 89.6417V87.9816L45.236 92.5467Z" fill="#15B26F"/>
    <path d="M63.0813 94.2067L56.4412 99.1868V109.147L57.6862 108.317V100.017L63.0813 95.8668V94.2067Z" fill="#15B26F"/>
    <path d="M73.8715 100.847L67.2314 105.412V115.787L68.4764 114.957V106.344L73.8715 102.507V100.847Z" fill="#15B26F"/>
    <path d="M85.4917 107.487L78.4366 111.637V122.012L79.6816 121.182V112.467L85.4917 109.147V107.487Z" fill="#15B26F"/>
    <path d="M96.2819 113.712L89.2268 118.277V128.652L90.4718 127.407V119.107L96.2819 115.372V113.712Z" fill="#15B26F"/>
    <path d="M107.072 120.352L100.017 124.502V134.462L101.262 133.217V125.332L107.072 122.012V120.352Z" fill="#15B26F"/>
    <path d="M118.277 126.577L111.222 131.142V141.103L112.467 139.443V131.972L118.277 128.237V126.577Z" fill="#15B26F"/>
    <path d="M129.898 133.217L122.842 137.783V147.743L124.087 146.498V138.613L129.898 134.877V133.217Z" fill="#15B26F"/>
    <path d="M147.743 137.368L141.103 133.217V134.877L146.498 138.198V146.498L147.743 147.743V137.368Z" fill="#15B26F"/>
    <path d="M158.948 131.142L152.308 126.577V128.237L157.703 131.972V139.443L158.948 141.103V131.142Z" fill="#15B26F"/>
    <path d="M170.153 124.502L163.098 120.352V122.012L168.908 125.332V132.802L170.153 134.462V124.502Z" fill="#15B26F"/>
    <path d="M181.358 117.862L174.718 113.712V115.372L180.113 118.692V126.162L181.358 127.822V117.862Z" fill="#15B26F"/>
    <path d="M192.564 111.637L185.509 107.487V109.147L191.319 112.467V119.937L192.564 121.182V111.637Z" fill="#15B26F"/>
    <path d="M203.354 105.412L196.299 100.847V102.507L202.109 106.242V113.712L203.354 115.372V105.412Z" fill="#15B26F"/>
    <path d="M214.144 98.7718L207.504 94.6217V96.2818L212.899 99.6018V107.487L214.144 109.147V98.7718Z" fill="#15B26F"/>
    <path d="M225.349 92.1317L218.294 87.9816V89.6417L224.104 92.9617V100.432L225.349 102.092V92.1317Z" fill="#15B26F"/>
    <path d="M229.084 78.4365L224.934 80.9265V80.0965L223.274 79.2665L230.329 76.3614V86.7366L229.084 86.3216V78.4365Z"
          fill="#15B26F"/>
    <path d="M219.124 70.1363L213.314 73.8714L214.559 74.2864L217.879 72.2113V76.3614L219.124 76.7764V70.1363Z"
          fill="#15B26F"/>
    <path d="M207.919 63.4962L202.109 67.2312L203.354 67.6463L206.674 65.5712V69.7213L207.919 70.5513V63.4962Z"
          fill="#15B26F"/>
    <path d="M197.129 57.2711L191.319 60.5911L192.564 61.4211L195.884 59.3461V63.4962L197.129 64.1843V57.2711Z"
          fill="#15B26F"/>
    <path d="M185.924 50.6309L179.698 53.951L180.943 54.781L184.679 52.706V56.8561L185.924 57.6861V50.6309Z"
          fill="#15B26F"/>
    <path d="M174.718 44.4058L168.908 48.1409L170.568 48.5559L173.473 46.4809V50.6309L174.718 51.0459V44.4058Z"
          fill="#15B26F"/>
    <path d="M163.928 37.7657L157.703 41.5008L158.948 42.3308L162.683 39.8407V44.4058L163.928 44.8208V37.7657Z"
          fill="#15B26F"/>
    <path d="M153.138 31.5406L146.913 34.8606L148.158 35.6907L151.893 33.6156V37.7657L153.138 38.5957V31.5406Z"
          fill="#15B26F"/>
    <path d="M117.447 29.8806L123.672 33.6156L122.842 34.4456L118.692 31.9556V36.5207L117.447 37.3507V29.8806Z"
          fill="#15B26F"/>
    <path d="M106.657 36.1057L112.882 39.8407L111.637 40.6708L107.902 38.5957V42.7458L106.657 43.5758V36.1057Z"
          fill="#15B26F"/>
    <path d="M95.8669 42.3308L102.092 46.0659L100.847 46.8959L97.1119 44.4058V48.9709L95.8669 50.2159V42.3308Z"
          fill="#15B26F"/>
    <path d="M84.2467 48.9709L90.8868 52.706L89.6418 53.536L85.4917 51.0459V55.8106L84.2467 56.5674V48.9709Z"
          fill="#15B26F"/>
    <path d="M73.4565 55.611L79.6816 59.3461L78.4366 60.1761L74.7015 57.6861V62.2512L73.4565 63.0812V55.611Z"
          fill="#15B26F"/>
    <path d="M62.6663 61.8361L69.7214 65.1562L68.0614 65.9862L63.9113 63.9112V68.4763L62.6663 69.3063V61.8361Z"
          fill="#15B26F"/>
    <path d="M51.4611 68.4763L58.1012 72.2113L56.8562 72.6263L52.7061 70.5513V75.0024L51.4611 75.7908V68.4763Z"
          fill="#15B26F"/>
    <path d="M40.2559 74.7014L46.896 78.4365L45.651 79.2665L41.5009 76.7764V85.4916L40.2559 86.3216V74.7014Z"
          fill="#15B26F"/>
    <path d="M41.5005 85.4916V76.7765L46.0656 78.8515L43.9905 80.0965V84.2466L41.5005 85.4916Z" fill="#4AC992"/>
    <path d="M52.7057 74.9965V70.5514L56.8558 72.6264L52.7057 74.9965Z" fill="#4AC992"/>
    <path d="M68.891 65.5713L63.9109 68.4763V63.9112L68.891 65.5713Z" fill="#4AC992"/>
    <path d="M74.7011 57.6861V62.1607L78.4362 60.1762L74.7011 57.6861Z" fill="#4AC992"/>
    <path d="M85.4913 51.046V55.8106L90.4714 53.121L85.4913 51.046Z" fill="#4AC992"/>
    <path d="M97.1115 44.4059V49.386L101.262 46.8959L97.1115 44.4059Z" fill="#4AC992"/>
    <path d="M107.902 38.5958V42.7458L111.637 40.6708L107.902 38.5958Z" fill="#4AC992"/>
    <path d="M118.692 31.9556V36.5207L122.842 34.0307L118.692 31.9556Z" fill="#4AC992"/>
    <path d="M151.893 33.6157L148.157 35.6907L151.893 37.7658V33.6157Z" fill="#4AC992"/>
    <path d="M162.683 39.8408L158.948 42.3308L162.683 44.4059V39.8408Z" fill="#4AC992"/>
    <path d="M173.473 46.4809L169.738 48.971L173.473 50.631V46.4809Z" fill="#4AC992"/>
    <path d="M184.678 52.706L180.943 54.7811L184.678 56.8561V52.706Z" fill="#4AC992"/>
    <path d="M195.883 59.3461L192.563 61.4212L195.883 63.4962V59.3461Z" fill="#4AC992"/>
    <path d="M206.674 65.5713L202.938 67.6463L206.674 69.7213V65.5713Z" fill="#4AC992"/>
    <path d="M217.879 72.2114L214.559 74.2864L217.879 76.3615V72.2114Z" fill="#4AC992"/>
    <path d="M229.084 78.4365L224.934 80.9265V84.6616L229.084 86.3216V78.4365Z" fill="#4AC992"/>
    <path d="M45.2354 92.5466L39.8403 89.2266L46.8955 84.6615L52.2906 87.9816L45.2354 92.5466Z" fill="#5DD19F"/>
    <path d="M58.1007 91.3016L51.0455 95.8667L56.4406 99.1868L63.0808 94.2067L58.1007 91.3016Z" fill="#5DD19F"/>
    <path d="M68.8909 97.9417L62.2507 102.092L67.2308 105.412L73.871 100.847L68.8909 97.9417Z" fill="#5DD19F"/>
    <path d="M80.0961 104.582L73.0409 108.317L78.436 111.637L85.4912 107.487L80.0961 104.582Z" fill="#5DD19F"/>
    <path d="M90.8863 110.807L84.2462 114.957L89.2262 118.277L96.2814 113.712L90.8863 110.807Z" fill="#5DD19F"/>
    <path d="M102.091 117.447L95.4514 121.597L100.016 124.502L107.072 120.352L102.091 117.447Z" fill="#5DD19F"/>
    <path d="M113.297 123.672L106.242 127.822L111.222 131.142L118.277 126.577L113.297 123.672Z" fill="#5DD19F"/>
    <path d="M124.502 130.312L117.447 134.462L122.842 137.782L129.897 133.217L124.502 130.312Z" fill="#5DD19F"/>
    <path d="M153.137 134.047L147.742 137.367L141.102 133.217L146.497 129.897L153.137 134.047Z" fill="#5DD19F"/>
    <path d="M164.343 127.822L158.948 131.142L152.307 126.577L157.703 123.672L164.343 127.822Z" fill="#5DD19F"/>
    <path d="M175.133 121.182L170.153 124.502L163.098 120.352L168.493 117.447L175.133 121.182Z" fill="#5DD19F"/>
    <path d="M186.338 114.957L181.358 117.862L174.718 113.712L179.698 111.222L186.338 114.957Z" fill="#5DD19F"/>
    <path d="M197.128 108.732L192.563 111.637L185.508 107.487L190.488 104.582L197.128 108.732Z" fill="#5DD19F"/>
    <path d="M208.333 102.092L203.353 105.412L196.298 100.847L201.278 97.9417L208.333 102.092Z" fill="#5DD19F"/>
    <path d="M219.124 95.8667L214.144 98.7718L207.503 94.6217L212.484 91.7166L219.124 95.8667Z" fill="#5DD19F"/>
    <path d="M230.329 89.2266L225.349 92.1316L218.294 87.9816L223.274 85.0765L230.329 89.2266Z" fill="#5DD19F"/>
    <path d="M230.329 76.3613L224.519 80.0964L218.709 76.7764L224.934 73.0413L230.329 76.3613Z" fill="#5DD19F"/>
    <path d="M219.124 70.1362L213.314 73.8713L207.503 70.1362L213.729 66.8162L219.124 70.1362Z" fill="#5DD19F"/>
    <path d="M207.918 63.4961L202.108 67.2312L196.713 63.9111L202.938 60.5911L207.918 63.4961Z" fill="#5DD19F"/>
    <path d="M197.128 57.271L191.318 60.5911L185.508 57.271L191.733 53.9509L197.128 57.271Z" fill="#5DD19F"/>
    <path d="M185.923 50.6309L179.698 53.9509L174.718 51.0459L180.943 47.7258L185.923 50.6309Z" fill="#5DD19F"/>
    <path d="M174.718 44.4058L168.908 48.1408L163.098 44.8208L169.323 41.0857L174.718 44.4058Z" fill="#5DD19F"/>
    <path d="M163.928 37.7656L158.118 41.5007L152.722 38.1806L158.533 34.8606L163.928 37.7656Z" fill="#5DD19F"/>
    <path d="M153.137 31.5405L146.912 34.8606L141.517 31.9555L147.742 28.2205L153.137 31.5405Z" fill="#5DD19F"/>
    <path d="M122.842 26.5604L129.067 30.2955L123.672 33.6156L117.447 29.8805L122.842 26.5604Z" fill="#5DD19F"/>
    <path d="M112.052 33.2005L117.862 36.9356L112.882 39.8407L106.657 36.1056L112.052 33.2005Z" fill="#5DD19F"/>
    <path d="M100.846 39.4257L107.072 43.1607L102.091 46.4808L95.8664 42.3307L100.846 39.4257Z" fill="#5DD19F"/>
    <path d="M90.0563 46.0658L96.2814 49.8009L90.8863 53.1209L84.2462 48.9708L90.0563 46.0658Z" fill="#5DD19F"/>
    <path d="M78.8511 52.7059L85.0762 56.026L79.6811 59.346L73.456 55.611L78.8511 52.7059Z" fill="#5DD19F"/>
    <path d="M67.6458 58.931L74.701 62.2511L68.8909 65.5711L62.6658 61.8361L67.6458 58.931Z" fill="#5DD19F"/>
    <path d="M56.8556 65.5711L63.0808 68.8912L57.6857 72.2113L51.4605 68.4762L56.8556 65.5711Z" fill="#5DD19F"/>
    <path d="M45.6504 71.7963L51.8756 75.5313L46.8955 78.4364L40.2553 74.7013L45.6504 71.7963Z" fill="#5DD19F"/>
    <path d="M39.8403 99.6018V89.2267L45.2354 92.5467V102.922L39.8403 99.6018Z" fill="#21B776"/>
    <path d="M51.0455 106.242V95.8668L56.4406 99.1868V109.147L51.0455 106.242Z" fill="#21B776"/>
    <path d="M62.2507 112.882V102.092L67.2308 105.412V115.787L62.2507 112.882Z" fill="#21B776"/>
    <path d="M73.0409 118.692V108.317L78.436 111.637V122.012L73.0409 118.692Z" fill="#21B776"/>
    <path d="M84.2462 125.332V114.957L89.2262 118.277V128.652L84.2462 125.332Z" fill="#21B776"/>
    <path d="M95.4514 131.557V121.597L100.016 124.502V134.462L95.4514 131.557Z" fill="#21B776"/>
    <path d="M106.242 137.783V127.822L111.222 131.142V141.103L106.242 137.783Z" fill="#21B776"/>
    <path d="M117.447 144.423V134.462L122.842 137.783V147.743L117.447 144.423Z" fill="#21B776"/>
    <path d="M153.137 134.047L147.742 137.368V147.743L153.137 144.423V134.047Z" fill="#21B776"/>
    <path d="M164.343 127.822L158.948 131.142V141.103L164.343 138.198V127.822Z" fill="#21B776"/>
    <path d="M175.133 121.182L170.153 124.502V134.462L175.133 131.557V121.182Z" fill="#21B776"/>
    <path d="M186.338 114.957L181.358 117.862V127.822L186.338 125.332V114.957Z" fill="#21B776"/>
    <path d="M197.128 108.732L192.563 111.637V121.182L197.128 118.692V108.732Z" fill="#21B776"/>
    <path d="M208.333 102.092L203.353 105.412V115.372L208.333 112.052V102.092Z" fill="#21B776"/>
    <path d="M219.124 95.8668L214.144 98.7718V109.147L219.124 105.827V95.8668Z" fill="#21B776"/>
    <path d="M230.329 89.2267L225.349 92.1317V102.092L230.329 99.6018V89.2267Z" fill="#21B776"/>
    <path d="M0 106.657V87.1516L135.708 165.588V185.093L0 106.657Z" fill="url(#paint0_linear_306_2211)"/>
    <path d="M135.708 185.093V165.588L271 86.7366V106.657L135.708 185.093Z" fill="url(#paint1_linear_306_2211)"/>
    <path d="M134.047 27.3905L43.9907 80.0964L134.462 132.387L224.934 80.0964L134.047 27.3905Z"
          fill="url(#paint2_linear_306_2211)"/>
    <path d="M140.687 85.0765L117.446 98.7718L122.012 105.412C126.162 111.637 116.616 113.712 113.296 108.317L90.471 75.5314C86.3216 69.3063 93.3767 67.2312 100.016 69.3063L159.362 83.0015C165.587 85.0765 162.682 90.4716 155.212 88.3966L140.687 85.0765Z"
          fill="white"/>
    <path d="M133.632 48.5559C128.652 45.6508 123.257 49.8009 126.992 52.7059C127.324 53.0379 156.458 69.9979 170.983 78.4364C176.698 81.7565 181.773 76.7764 177.208 73.4563C176.828 73.1801 148.019 56.7177 133.632 48.5559Z"
          fill="white"/>
    <path d="M131.142 83.0015L113.712 92.9617L100.847 75.5314L131.142 83.0015Z" fill="url(#paint3_linear_306_2211)"/>
    <path d="M18.2601 190.904C10.3753 190.904 8.30035 199.204 18.2601 199.204C28.2198 199.204 28.2208 190.904 18.2601 190.904Z"
          fill="#4BEFA9"/>
    <path d="M260.21 177.208C250.25 177.208 249.005 186.753 260.21 186.753C271.415 186.753 269.34 177.208 260.21 177.208Z"
          fill="#4BEFA9"/>
    <path d="M253.985 2.07504C244.44 2.07504 243.195 12.0352 253.985 12.0352C263.945 12.0352 264.775 2.07504 253.985 2.07504Z"
          fill="#4BEFA9"/>
    <path d="M35.2759 0C24.9007 0 25.7307 9.13017 35.2759 9.13017C48.9712 9.13017 45.6511 0 35.2759 0Z" fill="#4BEFA9"/>
    <defs>
        <linearGradient id="paint0_linear_306_2211" x1="67.8538" y1="87.1516" x2="67.8538" y2="185.093"
                        gradientUnits="userSpaceOnUse">
            <stop stop-color="#C9FFE8"/>
            <stop offset="0.960921" stop-color="#00A961"/>
        </linearGradient>
        <linearGradient id="paint1_linear_306_2211" x1="203.354" y1="86.7366" x2="203.354" y2="185.093"
                        gradientUnits="userSpaceOnUse">
            <stop stop-color="#C9FFE8"/>
            <stop offset="0.960921" stop-color="#00A961"/>
        </linearGradient>
        <linearGradient id="paint2_linear_306_2211" x1="134.462" y1="118.277" x2="124.087" y2="30.2955"
                        gradientUnits="userSpaceOnUse">
            <stop stop-color="#4BEFA9"/>
            <stop offset="1" stop-color="#4BEFA9" stop-opacity="0"/>
        </linearGradient>
        <linearGradient id="paint3_linear_306_2211" x1="113.712" y1="100.017" x2="116.202" y2="54.366"
                        gradientUnits="userSpaceOnUse">
            <stop stop-color="#4BEFA9"/>
            <stop offset="1" stop-color="#4BEFA9" stop-opacity="0"/>
        </linearGradient>
    </defs>
</svg>
