<svg width="202" height="251" viewBox="0 0 202 251" fill="none" xmlns="http://www.w3.org/2000/svg">
    <g clip-path="url(#clip0_306_1726)">
        <path d="M0 54.8723L94.4839 0L105.887 7.06277L11.4032 61.9351L0 54.8723Z" fill="url(#paint0_linear_306_1726)"/>
        <path d="M0 54.8723L11.4032 61.9351L11.4032 242.307L0 235.245V54.8723Z" fill="url(#paint1_linear_306_1726)"/>
        <path d="M31.4946 63.0216L125.979 8.14935L139.011 15.7554L43.9839 70.0844L31.4946 63.0216Z"
              fill="url(#paint2_linear_306_1726)"/>
        <path d="M31.4946 63.0216L43.9839 70.0844V250.457L31.4946 243.394V63.0216Z"
              fill="url(#paint3_linear_306_1726)"/>
        <path d="M11.4033 61.9351L105.887 7.06277V13.5823V19.9097L100.457 23.0473V16.6774L17.3764 65.1948V232.528L31.4947 224.922V230.898L11.4033 242.307V61.9351Z"
              fill="#2DBC7F"/>
        <path d="M43.9839 70.0844L139.011 15.7554V47.8095L166.161 32.0541V122.09C164.558 123.029 163.049 124.397 161.274 125.832V41.8333L133.581 57.9222V25.5346L49.957 73.3442V240.677L136.839 190.695V197.214L43.9839 250.457V70.0844Z"
              fill="#2DBC7F"/>
        <path d="M17.3765 65.1948L100.457 16.6895V23.1066L31.4947 63.0768V67.4232L22.2636 72.8561V78.2338L31.4947 72.2576V78.8322L22.2636 84.2652V91.2248L31.4947 85.6447V90.7846L22.2636 96.2175V102.328L31.4947 97.1879V102.659L22.2636 108.17V114.091L31.4947 108.658V114.69L22.2636 120.123V126.524L31.4947 121.041V127.13L22.2636 132.075V138.975L31.4947 133.161V138.594L22.2636 144.027V149.948L31.4947 144.515V150.491L22.2636 155.448V162.058L31.4947 156.468V162.444L22.2636 167.877V173.853L31.4947 168.42V173.853L22.2636 179.286V186.204L31.4947 180.771V186.348L22.2636 191.781V197.758L31.4947 192.179V198.163L22.2636 203.19V209.424L31.4947 204.277V209.848L22.2636 215.249V221.509L31.4947 216.398V224.922L17.3765 232.528V65.1948Z"
              fill="#B4F6DA"/>
        <path d="M22.2639 72.8009L31.4951 67.368V73.3441L22.2639 78.777V72.8009Z" fill="#F2F2F2"/>
        <path d="M22.264 84.2099L31.4946 78.777V85.8398L22.2634 91.2727L22.264 84.2099Z" fill="#F2F2F2"/>
        <path d="M22.2639 96.1623L31.4946 90.7294L31.4951 97.2489L22.2639 102.336V96.1623Z" fill="#F2F2F2"/>
        <path d="M22.264 107.917L31.4946 102.484V109.201L22.2634 114.634L22.264 107.917Z" fill="#F2F2F2"/>
        <path d="M22.2634 120.067L31.4946 114.634V121.154L22.2634 126.587V120.067Z" fill="#F2F2F2"/>
        <path d="M22.2634 132.02L31.4952 126.587V133.256L22.2634 139.082V132.02Z" fill="#F2F2F2"/>
        <path d="M22.2634 143.972L31.4946 138.539V144.515L22.2634 149.948V143.972Z" fill="#F2F2F2"/>
        <path d="M22.2639 155.381L31.4946 150.491V156.468L22.2639 162.057V155.381Z" fill="#F2F2F2"/>
        <path d="M22.264 167.877L31.4952 162.444L31.4946 168.42L22.2634 173.853L22.264 167.877Z" fill="#F2F2F2"/>
        <path d="M22.2634 179.286L31.4952 173.853V180.736L22.2634 186.186V179.286Z" fill="#F2F2F2"/>
        <path d="M22.2634 191.781L31.4946 186.349V192.142L22.2634 197.758V191.781Z" fill="#F2F2F2"/>
        <path d="M22.2634 203.19L31.4952 198.168V204.277L22.2634 209.41V203.19Z" fill="#F2F2F2"/>
        <path d="M22.264 215.258L31.4946 209.71V216.388L22.2634 221.662L22.264 215.258Z" fill="#F2F2F2"/>
        <path d="M105.887 7.06277L116.747 13.5823L105.887 19.8717V7.06277Z" fill="#4AC992"/>
        <path d="M139.011 15.7554L166.161 32.0541L139.011 47.8095V15.7554Z" fill="#4AC992"/>
        <path d="M49.957 73.3442L133.581 25.5346V57.5888L161.274 41.29V125.833C152.043 136.155 148.242 143.972 147.699 151.578V167.877L136.839 174.396V190.695L49.957 240.678V73.3442Z"
              fill="#B4F6DA"/>
        <path d="M53.7581 82.0368L77.6505 67.9113L78.1935 95.619L53.7581 109.745V82.0368Z" fill="#F2F2F2"/>
        <path d="M53.7581 118.437L77.6505 104.312L78.1935 132.019L53.7581 146.145V118.437Z" fill="#F2F2F2"/>
        <path d="M53.7581 154.294L77.6505 140.169L78.1935 167.877L53.7581 182.002V154.294Z" fill="#F2F2F2"/>
        <path d="M61.3591 90.7296L63.5312 91.8162L71.1344 79.3206C72.7634 76.0606 74.9355 79.3203 73.3064 82.037L65.7043 95.076C64.6183 97.2491 63.5322 97.2491 61.9021 96.7058L58.6441 95.076C55.3853 92.3595 59.1879 89.6431 61.3591 90.7296Z"
              fill="#0CC18B"/>
        <path d="M61.3591 127.13L63.5312 128.216L71.1344 115.721C72.7634 112.461 74.9355 115.721 73.3064 118.437L65.7043 131.476C64.6183 133.649 63.5322 133.649 61.9021 133.106L58.6441 131.476C55.3853 128.76 59.1879 126.043 61.3591 127.13Z"
              fill="#0CC18B"/>
        <path d="M61.3591 162.987L63.5312 164.074L71.1344 151.578C72.7634 148.318 74.9355 151.578 73.3064 154.294L65.7043 167.333C64.6183 169.506 63.5322 169.506 61.9021 168.963L58.6441 167.333C55.3853 164.617 59.1879 161.9 61.3591 162.987Z"
              fill="#0CC18B"/>
        <path d="M83.6235 64.1082L129.779 38.0303V44.0065L83.6235 70.6277V64.1082Z" fill="#F2F2F2"/>
        <path d="M83.6235 88.013L129.779 61.9351V67.9112L83.6235 94.5325V88.013Z" fill="#F2F2F2"/>
        <path d="M83.6235 111.374L129.779 85.2965V91.2727L83.6235 117.894V111.374Z" fill="#F2F2F2"/>
        <path d="M110.231 84.2099L156.387 58.132V64.1082L110.231 90.7294V84.2099Z" fill="#F2F2F2"/>
        <path d="M110.231 108.115L156.387 82.0368V88.013L110.231 114.634V108.115Z" fill="#F2F2F2"/>
        <path d="M110.231 131.476L156.387 105.398V111.374L110.231 137.996V131.476Z" fill="#F2F2F2"/>
        <path d="M110.231 155.381L156.387 129.303V131.476C154.573 134.232 153.6 135.235 152.043 137.996L110.231 161.9V155.381Z"
              fill="#F2F2F2"/>
        <path d="M83.6235 135.823L129.779 109.201V115.721L83.6235 142.342V135.823Z" fill="#F2F2F2"/>
        <path d="M83.6235 159.184L129.779 133.106V139.082L83.6235 165.703V159.184Z" fill="#F2F2F2"/>
        <path d="M54.844 187.978L103.172 160.271V165.703L54.844 194.498V187.978Z" fill="#F2F2F2"/>
        <path d="M54.844 211.883L102.629 184.175V190.152L54.844 217.316V211.883Z" fill="#F2F2F2"/>
        <path d="M111.317 178.742L147.658 157.554V164.074L111.317 185.262V178.742Z" fill="#F2F2F2"/>
        <path d="M54.844 223.835L136.839 176.026V182.002L54.844 229.268V223.835Z" fill="#F2F2F2"/>
        <path d="M54.844 199.387L129.779 156.468V162.987L54.844 206.45V199.387Z" fill="#F2F2F2"/>
        <path d="M83.6235 76.0606L103.172 64.6515V71.171L83.6235 82.5801V76.0606Z" fill="#F2F2F2"/>
        <path d="M83.6235 99.9654L103.172 88.5563V95.0758L83.6235 106.485V99.9654Z" fill="#F2F2F2"/>
        <path d="M136.296 81.4935L156.387 70.6277V76.6039L136.296 88.013V81.4935Z" fill="#F2F2F2"/>
        <path d="M136.296 104.855L156.387 93.9892V99.9654L136.296 111.374V104.855Z" fill="#F2F2F2"/>
        <path d="M135.753 129.303L156.387 117.351V123.327L135.753 135.279V129.303Z" fill="#F2F2F2"/>
        <path d="M83.6235 123.87L103.172 112.461V118.981L83.6235 130.39V123.87Z" fill="#F2F2F2"/>
        <path d="M83.6235 147.775L103.172 136.366V142.885L83.6235 154.294V147.775Z" fill="#F2F2F2"/>
        <path d="M136.296 153.208L148.785 145.602C148.242 147.775 147.699 149.948 147.699 152.665L136.296 159.184V153.208Z"
              fill="#F2F2F2"/>
        <path d="M136.839 174.396L153.672 184.175V226.827L136.839 216.773V174.396Z"
              fill="url(#paint4_linear_306_1726)"/>
        <path d="M147.699 167.877V172.223C146.07 173.853 145.527 175.483 148.242 177.656C149.522 178.68 156.387 178.742 158.016 177.656C160.687 175.162 160.731 173.853 158.559 171.68V162.444L179.736 149.948V153.751C178.65 155.381 178.107 157.554 179.736 159.184C180.822 160.271 188.425 160.814 190.597 159.184C192.226 157.554 191.683 155.381 190.597 153.751V149.948L201.457 156.468L153.672 184.175L136.839 174.396L147.699 167.877Z"
              fill="url(#paint5_linear_306_1726)"/>
        <path d="M173.22 197.214C167.79 191.781 170.505 181.459 179.735 179.286C184.351 178.199 182.452 188.522 178.65 191.238L179.736 198.844L172.134 203.19L173.22 197.214Z"
              fill="white"/>
        <path d="M172.134 203.19L179.736 198.844L178.65 191.238C181.686 187.063 181.909 183.089 179.736 179.286C185.167 177.656 186.253 184.175 182.995 191.781L184.081 200.474L171.591 208.08L172.134 203.19Z"
              fill="#00A860"/>
        <path d="M153.672 184.175L201.457 156.468V199.387L172.677 215.686L171.591 208.08L184.081 200.474L182.995 191.781C187.339 179.829 182.452 177.113 177.022 180.372C168.876 186.348 169.419 192.868 173.221 197.214L171.591 208.08L172.677 215.686L153.672 226.824V184.175Z"
              fill="#2DBC7F"/>
        <path d="M162.36 140.775C163.989 137.996 164.809 137.433 166.704 135.279L167.247 157.554L162.36 160.399V140.775Z"
              fill="#2DBC7F"/>
        <path d="M158.559 152.121C159.102 146.145 160.188 143.429 162.36 140.712V160.351L158.559 162.444V152.121Z"
              fill="#B4F6DA"/>
        <path d="M147.699 152.121C147.699 141.799 157.473 127.13 166.704 121.697C177.022 113.548 190.597 121.697 190.597 131.476V159.184C188.968 160.814 181.909 160.814 179.737 159.184V133.649C179.194 130.39 176.479 129.846 172.134 131.476C162.903 137.452 159.102 145.058 158.559 152.121V177.656C158.016 179.286 148.242 179.286 147.699 177.656V152.121Z"
              fill="#58D0A0"/>
        <path d="M147.7 172.223C146.613 172.766 146.07 173.31 146.07 174.939C146.07 176.569 146.853 176.89 147.7 177.656V174.939V172.223Z"
              fill="white"/>
        <path d="M158.559 171.68C159.645 172.223 160.188 173.309 160.188 174.939C160.188 176.569 159.645 177.113 158.559 177.656V171.68Z"
              fill="white"/>
        <path d="M179.737 153.751V159.184C179.083 158.33 178.651 158.097 178.651 156.468C178.651 155.381 179.236 154.535 179.737 153.751Z"
              fill="white"/>
        <path d="M190.597 153.751C191.14 154.294 191.583 155.347 191.683 157.011C191.553 158.283 191.237 158.658 190.597 159.184V153.751Z"
              fill="white"/>
    </g>
    <defs>
        <linearGradient id="paint0_linear_306_1726" x1="120.195" y1="35.5964" x2="9.37579" y2="225.581"
                        gradientUnits="userSpaceOnUse">
            <stop stop-color="#C9FFE8"/>
            <stop offset="1" stop-color="#00A961"/>
        </linearGradient>
        <linearGradient id="paint1_linear_306_1726" x1="120.195" y1="35.5964" x2="9.37579" y2="225.581"
                        gradientUnits="userSpaceOnUse">
            <stop stop-color="#C9FFE8"/>
            <stop offset="1" stop-color="#00A961"/>
        </linearGradient>
        <linearGradient id="paint2_linear_306_1726" x1="101.457" y1="13.2345" x2="39.9235" y2="239.635"
                        gradientUnits="userSpaceOnUse">
            <stop stop-color="#C9FFE8"/>
            <stop offset="1" stop-color="#00A961"/>
        </linearGradient>
        <linearGradient id="paint3_linear_306_1726" x1="101.457" y1="13.2345" x2="39.9235" y2="239.635"
                        gradientUnits="userSpaceOnUse">
            <stop stop-color="#C9FFE8"/>
            <stop offset="1" stop-color="#00A961"/>
        </linearGradient>
        <linearGradient id="paint4_linear_306_1726" x1="175.036" y1="149.687" x2="140.376" y2="208.145"
                        gradientUnits="userSpaceOnUse">
            <stop stop-color="#C9FFE8"/>
            <stop offset="0.960921" stop-color="#00A961"/>
        </linearGradient>
        <linearGradient id="paint5_linear_306_1726" x1="175.036" y1="149.687" x2="140.376" y2="208.145"
                        gradientUnits="userSpaceOnUse">
            <stop stop-color="#C9FFE8"/>
            <stop offset="0.960921" stop-color="#00A961"/>
        </linearGradient>
        <clipPath id="clip0_306_1726">
            <rect width="202" height="251" fill="white"/>
        </clipPath>
    </defs>
</svg>
